<svg xmlns="http://www.w3.org/2000/svg" width="155" height="116"><defs><linearGradient id="a" x1="104.863%" x2="5.64%" y1="80.524%" y2="25.282%"><stop offset="0%" stop-color="#52CDFF"/><stop offset="100%" stop-color="#503EFF"/></linearGradient><linearGradient id="b" x1="90.4%" x2="17.511%" y1="50.173%" y2="49.921%"><stop offset="0%" stop-color="#52C3FF"/><stop offset="100%" stop-color="#503EFF"/></linearGradient><linearGradient id="c" x1="8.121%" x2="93.852%" y1="50%" y2="50%"><stop offset="0%" stop-color="#52C3FF"/><stop offset="100%" stop-color="#51A1FF"/></linearGradient></defs><g fill="none" fill-rule="evenodd"><g transform="translate(0 .2484)"><path fill="#FFF" d="M2.2266 113.6487h148.904v-95.623H2.2266z"/><path fill="#5162FF" d="M140.0347 68.4496c1.9636 0 3.5626-1.599 3.5626-3.5626 0-1.9636-1.599-3.5627-3.5626-3.5627-1.9637 0-3.5664 1.599-3.5664 3.5627 0 1.9636 1.6027 3.5626 3.5664 3.5626"/><path fill="url(#a)" d="M149.9618 47.889h-18.3057c-3.2792 0-5.9455 2.67-5.9455 5.9455v22.105c0 3.2755 2.666 5.9455 5.9455 5.9455h18.3057v28.6248H4.5211V18.0417l1.8978.6713a9.5927 9.5927 0 003.2134.5512h65.3758v-.004h74.9537v28.6287zM130.2357 77.36h19.7261V52.414h-19.7261V77.36zm18.3057-62.6246l-138.9093.004c-2.8136 0-5.107-2.2858-5.111-5.0956 0-2.8213 2.2935-5.115 5.111-5.115h125.2061c1.2459 0 2.2625-1.0129 2.2625-2.2624 0-1.2496-1.0169-2.2664-2.2625-2.2664H9.6321C4.323 0 0 4.3231 0 9.636v99.4534c0 3.2755 2.666 5.9455 5.9415 5.9455h142.6001c3.2755 0 5.9455-2.67 5.9455-5.9455V20.6808c-.0002-3.2755-2.6702-5.9455-5.9457-5.9455z"/><rect width="126" height="5" x="15" y="27.752" fill="url(#b)" rx="2.5"/><rect width="23" height="5" x="127" y="36.752" fill="url(#c)" rx="2.5" transform="rotate(90 138.5 39.2516)"/><rect width="23" height="5" x="127" y="86.752" fill="url(#c)" rx="2.5" transform="rotate(-90 138.5 89.2516)"/><rect width="126" height="5" x="15" y="96.752" fill="url(#b)" rx="2.5"/></g><text fill="#5162FF" font-family="Karma-Medium, Karma" font-size="22" font-weight="400"><tspan x="19.5" y="70">name.eth</tspan></text></g></svg>